<svg width="40" height="40" viewBox="0 0 40 40" xmlns="http://www.w3.org/2000/svg" xmlns:xlink="http://www.w3.org/1999/xlink">
    <defs>
        <path d="M20 0C8.954 0 0 8.954 0 20s8.954 20 20 20 20-8.954 20-20S31.046 0 20 0z" id="piu1ikq9pa"/>
    </defs>
    <g fill="none" fill-rule="evenodd">
        <mask id="6h2vfgs41b" fill="#fff">
            <use xlink:href="#piu1ikq9pa"/>
        </mask>
        <use fill="#FFF" xlink:href="#piu1ikq9pa"/>
        <path d="M24.39 10.387H15.61c-.578 0-1.051.473-1.051 1.051v5.621c0 .602.493 1.095 1.095 1.095h.403c.603 0 1.096-.493 1.096-1.095v-4.284h5.695v4.284c0 .602.493 1.095 1.095 1.095h.403c.603 0 1.096-.493 1.096-1.095v-5.621c0-.578-.474-1.051-1.052-1.051" fill="#015368" mask="url(#6h2vfgs41b)"/>
        <path d="m34.965 15.478-29.917-.02a1.18 1.18 0 0 0-1.181 1.18l-.011 22.379c0 .651.528 1.18 1.18 1.18l29.916.02a1.18 1.18 0 0 0 1.181-1.18l.01-22.378a1.18 1.18 0 0 0-1.178-1.18" fill="#009FC7" mask="url(#6h2vfgs41b)"/>
        <path fill="#61C3DC" mask="url(#6h2vfgs41b)" d="M6.886 40.208h3.068v-24.74H6.886zM29.729 40.201h3.068V15.462h-3.068z"/>
        <path d="M25.696 26.749a5.696 5.696 0 1 1-11.39 0 5.696 5.696 0 0 1 11.39 0" fill="#FFF" mask="url(#6h2vfgs41b)"/>
        <path d="M23.722 26.048h-3.02v-3.02a.701.701 0 0 0-1.402 0v3.02h-3.02a.701.701 0 0 0 0 1.402h3.02v3.02a.701.701 0 0 0 1.402 0v-3.02h3.02a.7.7 0 0 0 0-1.402" fill="#015368" mask="url(#6h2vfgs41b)"/>
    </g>
</svg>
